<?xml version="1.0" encoding="UTF-8" standalone="no"?>
<!-- Created with Inkscape (http://www.inkscape.org/) -->

<svg
   xmlns:dc="http://purl.org/dc/elements/1.1/"
   xmlns:cc="http://creativecommons.org/ns#"
   xmlns:rdf="http://www.w3.org/1999/02/22-rdf-syntax-ns#"
   xmlns:svg="http://www.w3.org/2000/svg"
   xmlns="http://www.w3.org/2000/svg"
   xmlns:sodipodi="http://sodipodi.sourceforge.net/DTD/sodipodi-0.dtd"
   xmlns:inkscape="http://www.inkscape.org/namespaces/inkscape"
   width="512"
   height="512"
   viewBox="0 0 135.46666 135.46667"
   version="1.1"
   id="svg8"
   inkscape:version="0.92.3 (2405546, 2018-03-11)"
   sodipodi:docname="pinpages-color-fill.svg">
  <defs
     id="defs2" />
  <sodipodi:namedview
     id="base"
     pagecolor="#ffffff"
     bordercolor="#666666"
     borderopacity="1.0"
     inkscape:pageopacity="0.0"
     inkscape:pageshadow="2"
     inkscape:zoom="0.49497475"
     inkscape:cx="219.91857"
     inkscape:cy="180.28242"
     inkscape:document-units="mm"
     inkscape:current-layer="layer2"
     showgrid="false"
     units="px"
     inkscape:window-width="1366"
     inkscape:window-height="703"
     inkscape:window-x="0"
     inkscape:window-y="0"
     inkscape:window-maximized="1">
    <sodipodi:guide
       position="0,0"
       orientation="0,512"
       id="guide9"
       inkscape:locked="false" />
    <sodipodi:guide
       position="135.46666,0"
       orientation="-512,0"
       id="guide11"
       inkscape:locked="false" />
    <sodipodi:guide
       position="135.46666,135.46666"
       orientation="0,-512"
       id="guide13"
       inkscape:locked="false" />
    <sodipodi:guide
       position="0,135.46666"
       orientation="512,0"
       id="guide15"
       inkscape:locked="false" />
    <sodipodi:guide
       position="0,135.46666"
       orientation="256.00002,0"
       inkscape:locked="false"
       id="guide19" />
    <sodipodi:guide
       position="0,67.733323"
       orientation="0,255.99999"
       inkscape:locked="false"
       id="guide21" />
    <sodipodi:guide
       position="67.733329,67.733323"
       orientation="-256.00002,0"
       inkscape:locked="false"
       id="guide23" />
    <sodipodi:guide
       position="67.733329,135.46666"
       orientation="0,-255.99999"
       inkscape:locked="false"
       id="guide25" />
  </sodipodi:namedview>
  <metadata
     id="metadata5">
    <rdf:RDF>
      <cc:Work
         rdf:about="">
        <dc:format>image/svg+xml</dc:format>
        <dc:type
           rdf:resource="http://purl.org/dc/dcmitype/StillImage" />
        <dc:title></dc:title>
      </cc:Work>
    </rdf:RDF>
  </metadata>
  <g
     inkscape:groupmode="layer"
     id="layer2"
     inkscape:label="Background">
    <circle
       style="fill:#ffffff;fill-opacity:1;stroke-width:0.26458332"
       id="path822"
       cx="67.73333"
       cy="67.73333"
       r="67.73333" />
  </g>
  <g
     inkscape:label="Layer 1"
     inkscape:groupmode="layer"
     id="layer1"
     transform="translate(0,-161.53332)">
    <path
       style="fill:#d63023;fill-opacity:1;stroke-width:0.99605513"
       d="M 255.56836,0.86328125 A 255.56858,254.55841 0 0 0 0,255.42188 255.56858,254.55841 0 0 0 255.56836,509.98047 255.56858,254.55841 0 0 0 511.13672,255.42188 255.56858,254.55841 0 0 0 255.56836,0.86328125 Z M 138.82227,112.55859 h 234.35546 c 14.55026,0 26.26368,11.71342 26.26368,26.26368 v 94.66406 H 354.3457 A 101.01526,101.01526 0 0 0 256,154.98438 101.01526,101.01526 0 0 0 157.62305,233.48633 h -45.06446 v -94.66406 c 0,-14.55026 11.71342,-26.26368 26.26368,-26.26368 z M 112.55859,278.51367 H 157.6543 A 101.01526,101.01526 0 0 0 256,357.01562 101.01526,101.01526 0 0 0 354.37695,278.51367 h 45.06446 v 94.66406 c 0,14.55026 -11.71342,26.26368 -26.26368,26.26368 H 138.82227 c -14.55026,0 -26.26368,-11.71342 -26.26368,-26.26368 z"
       transform="matrix(0.26458333,0,0,0.26458333,0,161.53332)"
       id="path29"
       inkscape:connector-curvature="0" />
  </g>
</svg>
